<svg width="200" height="200" viewBox="0 0 200 200" fill="none" xmlns="http://www.w3.org/2000/svg">
<path d="M144.195 105.768C144.247 105.29 144.278 104.808 144.278 104.319C144.278 96.923 138.106 90.9307 130.491 90.9307C122.879 90.9307 116.707 96.923 116.707 104.319C116.707 111.713 122.879 117.703 130.491 117.703C136.282 117.703 141.233 114.243 143.279 109.326L137.337 108.292C136.02 110.685 133.53 112.296 130.683 112.296C126.903 112.296 123.774 109.473 123.144 105.768H144.195V105.768ZM130.683 96.4873C133.91 96.4873 136.666 98.551 137.791 101.472H123.566C124.688 98.5511 127.45 96.4873 130.683 96.4873V96.4873ZM105.962 91.4916H113.002V117.223H105.962V91.4916ZM109.484 81C107.311 81 105.556 82.7519 105.556 84.9011C105.556 87.047 107.311 88.7943 109.484 88.7943C111.649 88.7943 113.407 87.047 113.407 84.9011C113.407 82.7519 111.649 81 109.484 81M62.8711 83.2417V97.0934H47.6958V83.2417H40V117.2H47.6958V103.347H62.8711V117.2H70.5733V83.2417H62.8711ZM94.6473 91.5034V92.8841C92.601 91.6528 90.203 90.9456 87.6336 90.9456C80.17 90.9456 74.1166 96.9342 74.1166 104.325C74.1166 111.713 80.17 117.704 87.6336 117.704C90.0421 117.706 92.4075 117.07 94.4847 115.859V117.2H101.354V91.5034H94.6473ZM87.9769 112.063C83.621 112.063 80.0998 108.601 80.0998 104.328C80.0998 100.05 83.6209 96.5863 87.9769 96.5863C92.3317 96.5863 95.8587 100.05 95.8587 104.328C95.8586 108.601 92.3316 112.063 87.9769 112.063ZM158.835 89.1018C152.352 90.225 147.423 95.8263 147.347 102.582V117.222H154.088L154.092 102.307C154.092 98.8922 156.673 96.0742 160 95.6699L158.835 89.1018Z" fill="black"/>
</svg>
