<svg width="200" height="200" viewBox="0 0 200 200" fill="none" xmlns="http://www.w3.org/2000/svg">
<g clip-path="url(#clip0_1763_335)">
<path d="M53.698 116.952H40.3999L47.0498 105.435H60.3478L53.698 116.952Z" fill="#858585"/>
<path d="M66.9967 116.952H80.2973L73.6483 105.435H60.3477L66.9967 116.952Z" fill="#858585"/>
<path d="M66.9967 93.9181L60.3476 82.4008L53.6978 93.9181L60.3476 105.435L66.9967 93.9181Z" fill="#858585"/>
<path d="M86.2678 112.049H91.5941V110.118H86.2678V107.742H92.2601V105.81H86.2678H84.0105V107.742V115.021V116.952H86.2678H92.4176V115.021H86.2678V112.049Z" fill="#858585"/>
<path d="M86.1124 95.6696L88.4783 103.951H88.5726H90.5538H90.6464L93.0132 95.6696V103.951H95.1156V92.8102H93.9688H92.9778H91.8959L89.5636 100.63L87.2305 92.8102H86.1486H85.1568H84.01V103.951H86.1124V95.6696Z" fill="#858585"/>
<path d="M137.402 92.8105H135.157V103.951H137.402V92.8105Z" fill="#858585"/>
<path d="M139.232 105.809H136.988V116.952H139.232V105.809Z" fill="#858585"/>
<path d="M159.6 92.8105H157.356V103.951H159.6V92.8105Z" fill="#858585"/>
<path d="M98.255 92.8105H96.0103V103.951H98.255V92.8105Z" fill="#858585"/>
<path d="M154.22 97.1565H149.759V92.8111H147.55V103.951H149.759V99.088H154.22V103.951H156.428V92.8111H154.22V97.1565Z" fill="#858585"/>
<path d="M101.574 103.951H103.867V94.74H106.589V92.8102H103.867H101.574H98.8518V94.74H101.574V103.951Z" fill="#858585"/>
<path d="M122.046 116.952H124.335V107.742H127.058V105.809H124.335H122.046H119.322V107.742H122.046V116.952Z" fill="#858585"/>
<path d="M120.513 104.262C123.371 104.262 124.958 102.961 124.958 100.474V92.8109H122.714V100.677C122.714 101.634 121.907 102.435 120.513 102.435C118.826 102.435 118.329 101.49 118.329 100.677V92.8109H116.122V100.474C116.122 103.151 117.784 104.262 120.513 104.262Z" fill="#858585"/>
<path d="M103.551 112.049H108.879V110.118H103.551V107.742H109.545V105.81H103.551H101.294V107.742V115.021V116.952H103.551H109.701V115.021H103.551V112.049Z" fill="#858585"/>
<path d="M130.778 94.58C131.391 94.58 132.077 95.1501 132.077 95.8994C132.077 96.5671 131.598 97.3021 130.653 97.3021H127.981V94.58H130.778ZM130.613 102.267H127.981V99.0366H130.587C131.524 99.0366 132.318 99.5755 132.318 100.656C132.318 101.57 131.598 102.267 130.613 102.267M128.067 103.951H131.284C133.379 103.951 134.63 102.697 134.63 100.944C134.63 99.5258 133.601 98.3091 132.481 98.0296C133.46 97.7804 134.247 96.781 134.247 95.5508C134.247 93.9082 133.032 92.8111 130.774 92.8111H128.067H125.761H125.75V103.951H125.761H128.067Z" fill="#858585"/>
<path d="M129.866 110.757V107.725H132.583C133.5 107.725 134.112 108.369 134.112 109.248C134.112 109.867 133.568 110.757 132.65 110.757H129.866ZM134.339 111.603C135.294 111.315 136.321 110.457 136.321 108.911C136.321 106.93 134.979 105.793 132.695 105.793H129.866H127.631H127.608V116.936H129.866V112.545H131.782C132.941 112.545 133.571 113.146 133.761 113.94C133.969 114.815 133.916 116.121 134.14 116.936H136.408C136.188 116.083 136.058 114.922 136.009 114.006C135.928 112.498 135.135 111.897 134.339 111.603Z" fill="#858585"/>
<path d="M95.3983 105.809H93.1418V115.02V116.952H95.3983H100.651V115.02H95.3983V105.809Z" fill="#858585"/>
<path d="M110.356 99.243C112.164 99.5587 113.192 99.8922 113.192 100.972C113.192 101.702 112.468 102.395 110.969 102.395C109.468 102.395 108.7 101.542 108.7 100.53H106.537C106.537 102.468 107.792 104.239 111.066 104.239C114.183 104.239 115.535 102.59 115.535 100.706C115.535 98.9508 114.384 97.8369 112.325 97.4328C110.348 97.0446 108.991 96.9604 108.991 95.7076C108.991 94.8471 109.778 94.3385 110.987 94.3385C112.275 94.3385 113.013 94.9709 113.013 96.0393H115.193C115.193 94.2813 113.861 92.4719 110.898 92.4719C108.855 92.4719 106.734 93.649 106.734 95.8507C106.734 97.7014 108.093 98.8473 110.356 99.243Z" fill="#858585"/>
<path d="M141.769 99.243C143.575 99.5587 144.603 99.8922 144.603 100.972C144.603 101.702 143.881 102.395 142.381 102.395C140.881 102.395 140.11 101.542 140.11 100.53H137.948C137.948 102.468 139.203 104.239 142.477 104.239C145.594 104.239 146.946 102.59 146.946 100.706C146.946 98.9508 145.796 97.8369 143.738 97.4328C141.759 97.0446 140.404 96.9604 140.404 95.7076C140.404 94.8471 141.189 94.3385 142.4 94.3385C143.684 94.3385 144.424 94.9709 144.424 96.0393H146.605C146.605 94.2813 145.272 92.4719 142.31 92.4719C140.265 92.4719 138.145 93.649 138.145 95.8507C138.145 97.7014 139.506 98.8473 141.769 99.243Z" fill="#858585"/>
<path d="M114.78 115.23C112.965 115.23 111.906 113.452 111.906 111.335C111.906 109.216 112.928 107.435 114.78 107.435C116.157 107.435 116.865 108.293 117.171 109.341H119.509C119.125 107.16 117.42 105.539 114.716 105.539C111.308 105.539 109.584 108.148 109.584 111.366C109.584 114.584 111.378 117.19 114.716 117.19C117.388 117.19 119.191 115.638 119.522 113.258H117.171C116.865 114.377 116.133 115.23 114.78 115.23Z" fill="#858585"/>
<path d="M144.974 115.23C143.159 115.23 142.1 113.452 142.1 111.335C142.1 109.216 143.121 107.435 144.974 107.435C146.353 107.435 147.06 108.293 147.365 109.341H149.702C149.318 107.16 147.613 105.539 144.909 105.539C141.5 105.539 139.777 108.148 139.777 111.366C139.777 114.584 141.571 117.19 144.909 117.19C147.581 117.19 149.384 115.638 149.716 113.258H147.365C147.06 114.377 146.325 115.23 144.974 115.23Z" fill="#858585"/>
</g>
<defs>
<clipPath id="clip0_1763_335">
<rect width="120" height="35.5904" fill="white" transform="translate(40 82)"/>
</clipPath>
</defs>
</svg>
