<svg width="200" height="200" viewBox="0 0 200 200" fill="none" xmlns="http://www.w3.org/2000/svg">
<path fill-rule="evenodd" clip-rule="evenodd" d="M68.7314 96.0732H73.1702L73.3655 97.5364C73.7069 96.3661 75.9512 95.5365 77.3168 95.5365C80.4877 95.5365 81.7557 97.4879 81.7557 100.903V108.268H76.8293V101.682C76.8293 100.366 76.5856 99.3902 75.2685 99.3902C74.049 99.3902 73.4147 100.707 73.4147 101.635V108.268H68.732V96.0732H68.7314V96.0732ZM40 108.317V91.0492H48.2434C53.1704 91.0492 55.4141 93.4389 55.4141 96.9028C55.4141 100.611 53.3657 103.148 48.2434 103.148H45.463V108.318H40V108.317V108.317ZM47.6589 98.9512C48.976 98.9512 50.3901 98.6582 50.3901 97.1465C50.3901 95.5857 48.8784 95.2443 47.6589 95.2443H45.4637V98.9512H47.6589ZM122.975 96.0732H127.463L127.61 97.5364C128 96.3661 130.243 95.5365 131.61 95.5365C134.732 95.5365 136.048 97.4879 136.048 100.903V108.317H131.122V101.682C131.122 100.366 130.828 99.3902 129.512 99.3902C128.341 99.3902 127.706 100.707 127.706 101.635V108.317H122.975V96.0732H122.975ZM100.342 103.927C100.342 104.416 100.586 105.146 100.878 105.391C101.219 105.634 101.659 105.879 102.196 105.879C103.073 105.879 103.756 105.635 103.756 104.805C103.805 102.757 96.3416 104.562 96.3416 99.6838C96.3416 96.2698 98.9765 95.4887 101.708 95.4887C104.439 95.4887 108.196 96.0254 108.049 99.7323H103.903C103.903 99.3909 103.756 99.1471 103.561 98.8542C103.268 98.5128 102.926 98.3667 102.294 98.3175C101.464 98.269 100.684 98.4152 100.684 99.0495C100.732 100.952 108.391 99.6838 108.391 104.172C108.391 107.294 106.196 108.709 101.952 108.709C99.2687 108.66 95.9032 107.294 95.9032 103.928H100.342V103.927V103.927ZM150.829 100.805C150.829 100.511 150.829 100.122 150.439 99.634C150.244 99.3902 149.804 98.8535 149.122 98.8535C147.268 98.8535 146.78 100.658 146.78 102.123C146.78 103.83 147.562 105.244 149.024 105.244C150.292 105.244 150.927 104.073 150.927 103.097H155.22C155.317 105.634 153.561 108.658 148.829 108.658C144.975 108.658 142.244 105.975 142.244 102.073C142.244 97.3411 145.756 95.5358 148.78 95.5358C152.878 95.5358 155.22 98.0239 155.17 100.804H150.829V100.805ZM63.5121 108.317L63.0246 107.293C62.098 108.073 61.1223 108.512 59.5614 108.512C58.049 108.464 55.0734 108.268 55.0734 105C55.0734 99.634 63.0737 102.073 63.0737 99.4387C63.0737 98.5606 62.098 98.6091 61.5613 98.6091C60.5856 98.6091 59.952 98.8044 59.8052 100.267H55.7077C55.7077 97.731 56.4888 95.585 61.8542 95.585C67.0742 95.585 67.6102 98.3162 67.6102 101V106.561C67.6102 107.293 67.6594 107.634 68.1469 108.17V108.268L63.5121 108.317V108.317ZM63.1222 102.707C61.4637 103.489 59.3661 103.439 59.3177 104.659C59.3177 105.44 59.7567 105.829 60.7324 105.829C62.3418 105.829 63.2198 104.171 63.1222 102.707V102.707ZM91.0246 108.317L90.5371 107.293C89.6106 108.073 88.5857 108.512 87.0733 108.512C85.5124 108.464 82.5368 108.268 82.5368 105C82.5368 99.634 90.5371 102.073 90.5856 99.4387C90.5856 98.5606 89.5614 98.6091 89.0739 98.6091C88.0497 98.6091 87.4639 98.8044 87.3177 100.267H83.2203C83.2203 97.731 83.9516 95.585 89.3661 95.585C94.5369 95.585 95.0736 98.3162 95.0736 101V106.561C95.0736 107.293 95.1221 107.634 95.6103 108.17V108.268L91.0246 108.317V108.317ZM90.6341 102.707C88.9756 103.489 86.8289 103.439 86.8289 104.659C86.8289 105.44 87.2187 105.829 88.2436 105.829C89.8052 105.829 90.7317 104.171 90.6341 102.707V102.707ZM141.463 108.317V96.0732H136.927V108.317H141.463ZM136.928 94.5123H141.463V91H136.928V94.5123ZM115.658 95.6341C119.707 95.6341 122.195 98.4636 122.195 102.171C122.195 105.927 119.706 108.708 115.658 108.708C111.61 108.708 109.072 105.927 109.072 102.171C109.073 98.4636 111.61 95.6341 115.658 95.6341V95.6341ZM113.513 102.171C113.513 103.683 114.001 105.537 115.659 105.586C117.318 105.586 117.756 103.683 117.756 102.171C117.756 100.707 117.317 98.805 115.659 98.805C114.001 98.805 113.562 100.708 113.513 102.171ZM158.098 105.927C158.391 105.927 158.829 105.975 158.829 105.586C158.829 105.244 158.537 105.195 158.293 105.195H157.708V105.927H158.098ZM159.073 107.098H158.781L158.195 106.122H157.707V107.098H157.463V105.001H158.342C158.734 105.001 159.082 105.118 159.082 105.586C159.082 105.975 158.829 106.122 158.44 106.122L159.073 107.098ZM159.782 106.098C159.782 105.171 159.05 104.439 158.172 104.439C157.954 104.437 157.737 104.479 157.535 104.561C157.333 104.644 157.149 104.766 156.995 104.921C156.84 105.075 156.718 105.259 156.636 105.461C156.553 105.663 156.511 105.88 156.513 106.098C156.513 106.975 157.245 107.707 158.172 107.707C158.598 107.704 159.005 107.533 159.306 107.232C159.607 106.931 159.778 106.524 159.782 106.098V106.098ZM156.292 106.073C156.292 105.581 156.488 105.11 156.835 104.762C157.183 104.414 157.655 104.219 158.146 104.219C158.638 104.219 159.109 104.414 159.457 104.762C159.805 105.11 160 105.581 160 106.073C160 107.098 159.17 107.927 158.146 107.927C157.122 107.927 156.292 107.098 156.292 106.073Z" fill="#858585"/>
</svg>
