<svg width="200" height="200" viewBox="0 0 200 200" fill="none" xmlns="http://www.w3.org/2000/svg">
<path fill-rule="evenodd" clip-rule="evenodd" d="M131.477 90.3313H136.354V97.7114H146.235V90.3313H151.114V108.765H146.235V100.633H136.354V108.765H131.477V90.3313ZM40 90.3313H44.8797V97.7114H54.7587V90.3313H59.6685V108.765H54.7587V100.633H44.8797V108.765H40V90.3313V90.3313ZM63.7042 90.3313H68.6449V108.765H63.7042V90.3313ZM155.06 90.3313H160V108.765H155.06V90.3313ZM70.4517 90.3313H89.6388V93.4034H82.4701V108.765H77.6205V93.4034H70.4517V90.3313ZM93.8551 101.717L97.2589 93.4937L100.633 101.717H93.8551ZM101.867 104.639L103.554 108.765H109.067L100.362 90.3614H94.1868L85.4218 108.765H90.9033L92.6206 104.639H101.867ZM123.916 96.5966H128.916C128.855 93.253 125.964 90.0605 119.247 90.0003C114.247 89.9702 108.193 92.0186 108.162 99.5183C108.132 106.958 114.307 109.277 119.247 109.157C123.795 109.006 128.855 107.742 129.067 102.139L124.036 102.169C123.886 105.664 121.085 106.356 119.247 106.386C117.349 106.386 113.463 105.995 113.405 99.6093C113.345 93.5854 116.898 92.7422 119.247 92.7422C121.566 92.7715 123.886 93.8562 123.916 96.5966V96.5966Z" fill="#858585"/>
</svg>
