<svg width="200" height="200" viewBox="0 0 200 200" fill="none" xmlns="http://www.w3.org/2000/svg">
<path fill-rule="evenodd" clip-rule="evenodd" d="M47.8787 118.711H40C40 118.711 41.481 117.968 41.481 116.55V93.0508C41.481 91.4301 40 91.0254 40 91.0254H56.4982V95.6848C56.4982 95.6848 56.094 94.1312 54.8151 94.1312H46.3977V101.762H54.9496V106.016C54.9496 106.016 54.6799 105.004 53.4687 105.004H46.3977V116.484C46.397 118.036 47.8787 118.711 47.8787 118.711V118.711ZM148.955 119.24C143.154 119.22 139.123 115.671 139.123 112.027V93.0508C139.123 91.6999 137.507 91.0254 137.507 91.0254H145.454C145.454 91.0254 143.838 91.7006 143.838 92.9837V112.027C143.838 113.846 146.374 116.18 148.821 116.163C151.222 116.146 153.669 113.866 153.669 112.027V93.0172C153.669 91.5992 152.054 91.059 152.054 91.059H160C160 91.059 158.384 91.5992 158.384 93.0172V112.027C158.382 115.572 154.363 119.258 148.955 119.24V119.24ZM68.9557 119.24C63.1547 119.22 59.1242 115.671 59.1242 112.027V93.0508C59.1242 91.6999 57.5081 91.0254 57.5081 91.0254H65.4543C65.4543 91.0254 63.8382 91.7006 63.8382 92.9837V112.027C63.8382 113.846 66.3741 116.18 68.8212 116.163C71.2225 116.146 73.6696 113.866 73.6696 112.027V92.9837C73.6696 91.5657 72.0535 91.0254 72.0535 91.0254H79.9991C79.9991 91.0254 78.3829 91.5657 78.3829 92.9837V112.027C78.3829 115.572 74.364 119.258 68.9557 119.24V119.24ZM89.9657 91.0248C89.9657 91.0248 88.3496 91.6999 88.3496 93.1179V122.29C88.3496 122.29 88.267 127.354 79.7301 129.582C79.5546 129.628 83.5687 125.328 83.5687 122.29C83.5687 120.264 83.6172 94.197 83.5687 93.1179C83.5018 91.6321 81.9525 91.0248 81.9525 91.0248H89.9657V91.0248ZM98.0465 116.55C98.1141 118.036 99.6627 118.644 99.6627 118.644H91.6495C91.6495 118.644 93.265 117.969 93.265 116.55H93.2732C93.2848 108.179 93.3005 93.8998 93.265 93.1179C93.1974 91.6321 91.6495 91.0248 91.6495 91.0248H99.6627C99.6627 91.0248 98.0465 91.6999 98.0465 93.1179V116.55ZM112.591 94.1312V116.551C112.66 118.037 114.207 118.644 114.207 118.644H106.194C106.194 118.644 107.81 117.97 107.81 116.551H107.819C107.828 109.36 107.841 97.7403 107.823 94.1319H102.491C100.806 94.1319 99.8641 96.0224 99.8641 96.0224L101.48 91.0254H120.269L119.123 95.6177C119.123 95.6177 119.056 94.1319 117.44 94.1319L112.591 94.1312V94.1312ZM89.2372 82.7488C90.2054 84.8618 92.9584 86.4701 95.8917 86.4701C100.152 86.4701 103.604 83.0069 103.604 78.7351C103.604 74.4632 100.152 71 95.8917 71C93.5702 71 91.4877 72.0277 90.0736 73.656L90.1262 77.7532C90.3713 74.9432 93.4138 73.354 95.8917 73.4211C98.8201 73.5005 101.196 75.8032 101.196 78.7405C101.196 81.6779 98.8208 84.0607 95.8917 84.0607C94.0085 84.0607 92.3876 83.0425 91.4467 81.5595L91.2016 81.0863C90.144 79.1199 87.998 77.6039 85.5215 77.6039C84.6835 77.6038 83.8538 77.7693 83.0796 78.0908C82.3054 78.4123 81.602 78.8836 81.0095 79.4778C80.417 80.072 79.947 80.7774 79.6263 81.5537C79.3057 82.3301 79.1407 83.1622 79.1408 84.0025C79.1407 84.8428 79.3057 85.6748 79.6263 86.4512C79.947 87.2275 80.417 87.9329 81.0095 88.5271C81.602 89.1213 82.3054 89.5926 83.0796 89.9141C83.8538 90.2356 84.6835 90.4011 85.5215 90.401C86.4803 90.4018 87.4269 90.1855 88.2908 89.7683C89.1546 89.3511 89.9134 88.7438 90.5106 87.9915V85.1172L88.2076 87.0384C87.5193 87.5143 86.5129 87.9183 85.5215 87.9183C84.4987 87.8991 83.5242 87.4782 82.8076 86.746C82.0911 86.0139 81.6896 85.029 81.6896 84.0031C81.6896 82.9773 82.0911 81.9924 82.8076 81.2603C83.5242 80.5281 84.4987 80.1072 85.5215 80.088C87.1165 80.088 88.424 81.0822 89.1915 82.6646L89.2372 82.7488V82.7488ZM134.645 95.3466V91.9368C134.645 91.4643 131.564 90.757 129.612 90.7379C128.198 90.7235 120 91.0576 120 98.2504C120 104.159 126.194 106.489 127.002 106.894C127.811 107.299 132.355 109.325 132.355 111.757C132.355 114.93 129.663 116.518 126.43 116.518C123.197 116.518 120.568 114.417 119.83 113.782C119.773 113.734 120.942 118.644 120.942 118.644C120.942 118.644 123.863 119.387 126.329 119.387C127.475 119.387 137.171 119.387 137.171 111.689C137.171 105.849 131.211 103.755 130.034 103.181C128.95 102.653 124.746 101.02 124.746 97.9813C124.746 95.5506 127.643 93.5246 129.798 93.5246C132.831 93.5232 133.905 94.503 134.645 95.3466V95.3466Z" fill="black"/>
</svg>
