<svg width="200" height="200" viewBox="0 0 200 200" fill="none" xmlns="http://www.w3.org/2000/svg">
<path d="M159.133 118.887C158.974 118.935 158.771 118.954 158.516 118.954C119.272 118.92 80.023 118.925 40.779 118.92C40.6729 118.92 40.5621 118.901 40.4513 118.887H159.133ZM40.0658 122.487V122.496C40.0561 122.492 40.0465 122.487 40.0369 122.482C40.0369 124.429 40.1091 126.376 40.008 128.318C39.9887 128.66 40.0031 128.921 40.0658 129.123V129.701H41.1355C41.2126 129.706 41.2897 129.706 41.3717 129.706C43.3859 129.706 45.4001 129.701 47.4144 129.701H159.995V122.487H40.0658Z" fill="#858585"/>
<path d="M40.0491 80.8242V80.829C40.0394 80.829 40.0298 80.8242 40.0202 80.8242V118.887L40.0491 118.882V118.887H159.983V80.8242H40.0491ZM67.8148 105.181C67.704 107.253 66.6246 108.728 64.8031 109.461C59.8686 111.446 54.8812 111.408 49.9902 109.273C48.4723 108.612 47.4603 107.374 47.1086 105.673C46.9447 104.887 46.9206 104.612 46.9206 104.612L53.7103 104.617C53.7103 104.617 53.6187 104.839 53.9078 105.354C54.9824 107.287 58.5387 107.899 60.2397 106.497C60.9721 105.894 61.454 105.109 61.2661 104.145C61.0733 103.157 60.2638 102.694 59.3723 102.42C56.5148 101.538 53.6621 100.646 50.7949 99.8171C48.7999 99.2388 47.4073 98.1159 47.123 95.9713C46.8194 93.6966 47.8314 92.0098 49.6818 90.7857C51.2575 89.7399 53.0501 89.3544 54.9005 89.1375C57.3484 88.8483 59.7771 88.911 62.1624 89.5712C63.6707 89.9905 65.044 90.6845 66.133 91.8508C67.8389 93.6821 67.6413 95.1857 67.6413 95.1857L61.0685 95.1905C61.0685 95.1905 61.2468 95.1713 60.6107 93.9713C59.6855 92.2267 55.1125 92.1977 53.8452 93.7447C52.9152 94.8821 53.4886 96.3038 55.1318 96.8195C58.1243 97.7592 61.1456 98.6219 64.1236 99.605C66.8366 100.497 67.969 102.313 67.8148 105.181V105.181ZM79.6497 93.2194L79.64 110.569L73.6359 110.559L73.6069 93.2098L68.4991 93.2194V89.205L85.013 89.1905C85.013 89.1905 85.0322 92.5496 85.0322 93.2098C83.8227 93.2098 79.6497 93.2194 79.6497 93.2194V93.2194ZM117.901 105.21C117.829 109.051 116.923 110.024 113.135 110.574C109.661 111.075 106.158 110.665 102.558 110.824C98.9392 110.598 95.1854 111.181 91.4653 110.511C88.1741 109.918 87.2296 108.998 87.1525 105.682C87.0272 100.492 87.0513 89.2146 87.0513 89.2146L96.26 89.2339C96.26 89.2339 96.2407 99.4653 96.2455 103.957C96.2503 106.005 96.7756 106.675 98.8476 106.791C101.185 106.921 103.536 106.935 105.883 106.863C108.21 106.795 108.851 106.058 108.861 103.711C108.875 99.3207 108.832 89.2146 108.832 89.2146C108.832 89.2146 115.26 89.1953 117.978 89.1953C117.978 94.1785 117.993 100.217 117.901 105.21V105.21ZM122.146 110.516C122.146 110.516 122.199 92.4243 122.199 89.2339H128.102C128.102 90.2122 128.083 106.603 128.083 106.603H135.075C135.075 106.603 135.104 108.848 135.104 110.574C132.16 110.574 122.146 110.516 122.146 110.516V110.516ZM152.765 110.516H136.395C136.395 110.01 136.41 107.528 136.41 106.569C137.562 105.075 142.501 97.393 145.103 93.2869C142.66 93.2869 139.186 93.3062 136.921 93.3062C136.921 92.2797 136.94 89.2001 136.94 89.2001L152.476 89.1809C152.476 89.1809 152.456 92.1544 152.456 93.0941C151.459 94.5158 143.763 106.564 143.763 106.564L152.77 106.554C152.765 106.554 152.765 108.034 152.765 110.516ZM40.7044 70.0145C40.555 69.9952 40.4394 69.9952 40.343 70.0145H40.0491V70.2747C40.0057 70.4 39.9961 70.5687 40.0009 70.7855C40.0491 72.935 40.0202 75.0796 40.0202 77.229C40.0298 77.2241 40.0394 77.2193 40.0491 77.2145V77.229H159.983V70.0145H40.7044Z" fill="#858585"/>
</svg>
