<svg width="200" height="200" viewBox="0 0 200 200" fill="none" xmlns="http://www.w3.org/2000/svg">
<path fill-rule="evenodd" clip-rule="evenodd" d="M53.9592 88C60.1098 88 65.3517 91.4126 67.2034 96.1246H52.2153L45.8632 109.533C42.3188 107.377 40 103.848 40 99.8725C39.9993 93.3333 46.2702 88 53.9592 88V88Z" fill="black"/>
<path fill-rule="evenodd" clip-rule="evenodd" d="M67.7942 98.2907C67.8761 98.8083 67.9191 99.3361 67.9191 99.8714C67.9191 106.411 61.6483 111.744 53.9593 111.744C52.9037 111.744 51.8754 111.643 50.886 111.452L54.5137 103.165C55.2798 101.416 54.216 99.7103 52.3506 98.29H67.7942V98.2907V98.2907Z" fill="black"/>
<path fill-rule="evenodd" clip-rule="evenodd" d="M98.0448 92.3672H84.2181C80.5768 92.3672 75.9938 96.0543 75.1553 99.5571L74.5763 101.977C73.3691 107.018 76.5209 110.272 79.711 110.272H90.5648C92.2929 110.272 94.1706 108.163 94.5858 106.47L96.3153 99.4178L86.7725 99.4874L85.4301 101.977H89.785C90.5026 101.977 90.1428 103.433 89.9079 104.12L89.1268 106.401C88.8707 107.15 88.1845 108.061 87.4027 108.061H82.2175C80.038 108.061 79.6782 104.033 80.2477 101.908L80.8963 99.4881C81.5682 96.9795 84.5281 94.6491 87.1016 94.6491H97.4713L98.0448 92.3672ZM160 92.3672H149.281C145.64 92.3672 141.056 96.0543 140.218 99.5571L139.639 101.977C138.432 107.018 141.584 110.272 144.774 110.272H155.627L156.211 108.076H147.231V108.058C145.116 107.998 144.752 104.09 145.295 101.967H157.601L158.144 99.8083H145.872L145.958 99.4874C146.63 96.9788 149.589 94.6484 152.164 94.6484H159.426C159.617 93.8885 159.81 93.1278 160 92.3672V92.3672ZM140.096 92.3672H129.377C125.735 92.3672 121.151 96.0543 120.314 99.5571L119.734 101.977C118.527 107.018 121.68 110.272 124.869 110.272H135.723L136.306 108.076H127.326V108.058C125.212 107.998 124.848 104.09 125.39 101.967H137.696L138.239 99.8083H125.968L126.053 99.4874C126.725 96.9788 129.686 94.6484 132.259 94.6484H139.522C139.713 93.8885 139.904 93.1278 140.096 92.3672V92.3672ZM100.844 92.3672L96.4205 110.203L102.158 110.273L105.891 94.5801H113.012C113.971 94.5801 114.496 96.195 114.326 97.1379C114.133 98.2126 112.998 99.8684 111.284 99.8684H106.047L111.699 110.204H118.128L113.566 102.047C116.537 101.617 119.554 99.37 119.719 96.238C119.797 94.7249 118.241 92.3686 115.622 92.3686H100.844V92.3672V92.3672Z" fill="black"/>
</svg>
