<svg width="526" height="437" viewBox="0 0 526 437" fill="none" xmlns="http://www.w3.org/2000/svg">
<path d="M456.093 209.834C502.315 231.705 525.426 266.574 525.426 314.442C525.426 352.819 513.458 382.942 489.521 404.813C465.998 426.271 429.475 437 379.952 437H0.482422V0H372.523C420.808 0 455.474 10.1099 476.522 30.33C497.982 50.55 508.712 76.9598 508.712 109.559C508.712 130.605 504.172 149.793 495.093 167.125C486.013 184.456 473.014 198.693 456.093 209.834ZM95.1951 77.3724V180.742H339.715C357.048 180.742 370.254 179.917 379.333 178.266C388.412 176.616 395.634 172.076 400.999 164.649C406.777 157.221 409.666 145.254 409.666 128.748C409.666 112.654 406.777 100.894 400.999 93.4659C395.634 86.0382 388.412 81.499 379.333 79.8484C370.254 78.1978 357.048 77.3724 339.715 77.3724H95.1951ZM356.429 359.628C372.936 359.628 385.523 358.802 394.19 357.151C402.856 355.501 409.872 350.962 415.237 343.534C421.015 335.694 423.904 323.314 423.904 306.395C423.904 289.476 421.015 277.097 415.237 269.256C409.872 261.416 402.856 256.671 394.19 255.02C385.523 253.369 372.936 252.544 356.429 252.544H95.1951V359.628H356.429Z" fill="black"/>
</svg>
