<svg width="70" height="18" viewBox="0 0 70 18" fill="none" xmlns="http://www.w3.org/2000/svg">
<path d="M15.6499 0.349609H21.6249L11.8999 8.09961L21.6249 17.9996H16.4249L8.9749 10.4246L3.8499 14.5246V17.9996H0.0249023V0.349609H3.8499V9.77461L15.6499 0.349609Z" fill="black"/>
<path d="M42.5948 8.82461C44.4615 9.70794 45.3948 11.1163 45.3948 13.0496C45.3948 14.5996 44.9115 15.8163 43.9448 16.6996C42.9948 17.5663 41.5198 17.9996 39.5198 17.9996H24.1948V0.349609H39.2198C41.1698 0.349609 42.5698 0.757943 43.4198 1.57461C44.2865 2.39128 44.7198 3.45794 44.7198 4.77461C44.7198 5.62461 44.5365 6.39961 44.1698 7.09961C43.8032 7.79961 43.2782 8.37461 42.5948 8.82461ZM28.0198 3.47461V7.64961H37.8948C38.5948 7.64961 39.1282 7.61628 39.4948 7.54961C39.8615 7.48294 40.1532 7.29961 40.3698 6.99961C40.6032 6.69961 40.7198 6.21628 40.7198 5.54961C40.7198 4.89961 40.6032 4.42461 40.3698 4.12461C40.1532 3.82461 39.8615 3.64128 39.4948 3.57461C39.1282 3.50794 38.5948 3.47461 37.8948 3.47461H28.0198ZM38.5698 14.8746C39.2365 14.8746 39.7448 14.8413 40.0948 14.7746C40.4448 14.7079 40.7282 14.5246 40.9448 14.2246C41.1782 13.9079 41.2948 13.4079 41.2948 12.7246C41.2948 12.0413 41.1782 11.5413 40.9448 11.2246C40.7282 10.9079 40.4448 10.7163 40.0948 10.6496C39.7448 10.5829 39.2365 10.5496 38.5698 10.5496H28.0198V14.8746H38.5698Z" fill="black"/>
<path d="M63.9165 0.349609H69.8915L60.1665 8.09961L69.8915 17.9996H64.6915L57.2415 10.4246L52.1165 14.5246V17.9996H48.2915V0.349609H52.1165V9.77461L63.9165 0.349609Z" fill="black"/>
</svg>
